PathFileType	4	(X/Y/Z)	OpenSim_Sub09_CSStiffKnee_Accel.trc
DataRate	CameraRate	NumFrames	NumMarkers	Units	OrigDataRate	OrigDataStartFrame	OrigNumFrames
100	100	41	8	m	100	2673	7127
Frame#	Time	torso_imu_offset_imu	pelvis_imu_offset_imu	tibia_r_imu_offset_imu	femur_r_imu_offset_imu	tibia_l_imu_offset_imu	femur_l_imu_offset_imu	toes_r_imu_offset_imu	toes_l_imu_offset_imu
				X1	Y1	Z1	X2	Y2	Z2	X3	Y3	Z3	X4	Y4	Z4	X5	Y5	Z5	X6	Y6	Z6	X7	Y7	Z7	X8		Y8	Z8	

2673	26.72000000	9.07268543	-0.42221121	3.77157073	7.44702873	1.39177907	5.25996168	9.94771436	1.46526900	0.17327128	9.60190376	-1.18445432	-0.27346822	9.73493872	1.32174336	4.11438539	8.01221625	-2.32540284	1.21649008	5.85551796	-2.16561701	7.82623440	4.51007723	1.70760127	11.97381131
2674	26.73000000	9.05793014	-0.38248543	3.84876060	7.85988515	1.46578489	5.08758767	10.10253192	1.46837321	0.37216243	9.69222305	-1.05494748	-0.49367869	10.58883786	1.37365231	3.65822060	8.76610878	-2.01030114	1.10321973	5.64584656	-2.07946262	8.02881234	5.37869565	1.61570123	12.61611587
2675	26.74000000	9.07493203	-0.39539591	3.89882384	8.11836231	1.56792492	4.98040886	10.21060282	1.52511708	0.26211129	9.73737218	-0.80482652	-0.44352694	10.99791120	0.80297980	2.91246255	8.82660123	-1.83733288	1.00376118	5.41067009	-2.30143587	7.99939261	6.70578847	1.84812239	13.32774046
2676	26.75000000	9.11658791	-0.38422786	4.06442252	8.13818533	1.64855016	4.90213097	10.00476555	1.53524046	0.22149195	9.62966662	-0.53594458	-0.28251778	11.05700697	-0.32556435	2.36538182	8.75818430	-1.49477488	1.05676049	5.37400338	-2.37593307	8.07253838	7.54258238	2.41272259	13.57424059
2677	26.76000000	9.25811002	-0.40040656	4.24161606	8.25894639	1.65724827	4.83955459	9.72236586	1.80580892	-0.17171861	9.39935391	-0.22699443	-0.18277034	11.02506331	-1.56724889	2.14040538	8.83737026	-0.81946852	0.94166885	5.42156321	-2.33959336	8.06291571	7.62088752	2.58655184	13.42851620
2678	26.77000000	9.24158115	-0.39606794	4.39087800	8.41079093	1.76284934	4.75913469	9.60877290	2.12330075	-0.24278421	9.22748629	0.08589309	-0.16987753	10.81371608	-2.57912923	2.18254274	9.15851039	-0.47137994	1.00378195	5.58962629	-2.51047554	7.93897632	7.74897745	1.99138110	13.21894233
2679	26.78000000	9.29512064	-0.33800820	4.60508642	8.35498517	1.86208678	4.65692453	9.68515257	2.50447066	-0.36132243	9.18839225	0.31375888	-0.09821340	10.50434576	-3.32922482	2.30119666	9.31499862	0.53813660	1.02300049	5.61277727	-2.35456197	8.04497625	8.26034842	1.06818835	13.12039513
2680	26.79000000	9.25358245	-0.25711788	4.66412279	8.31841388	2.08443317	4.58782512	9.70501650	3.06185166	-0.23981990	9.37395501	0.55623589	0.10436468	10.24456270	-3.76629140	2.32552410	9.48309477	1.37713422	1.36595412	5.64312083	-2.23657719	8.10469150	9.26906383	0.48210976	13.12734478
2681	26.80000000	9.30800429	-0.21123268	4.77556977	8.29397678	2.38168635	4.39004692	9.69848489	3.50233623	-0.03952391	9.56168175	0.73821277	0.19980618	10.07139847	-3.69730717	2.29474876	9.18552429	2.25127232	1.69530893	5.48028043	-2.19835753	8.18812161	9.81802292	0.55134806	12.94998775
2682	26.81000000	9.25730005	-0.15969974	4.89924121	8.24588601	2.65504146	4.34209420	9.63466177	3.71235404	0.35323188	9.69294911	0.97108938	0.27292618	9.94523453	-3.26993971	2.23158803	8.94044288	2.67900288	1.92290603	5.86178447	-1.94345658	7.98337827	9.56163130	1.41323822	12.61130152
2683	26.82000000	9.12568686	-0.16836263	4.97269983	8.27661250	2.87303954	4.36450935	9.56394583	3.55140126	0.45767989	9.70587528	1.16860420	0.43858822	10.11506908	-2.98698242	2.39464846	8.76032637	3.18627683	1.66304323	5.79196864	-1.72958493	8.07184354	8.96012518	2.30987408	12.12641308
2684	26.83000000	9.16619279	-0.13812752	5.07203259	8.38119914	3.07371160	4.28020698	9.79371166	3.12414533	0.52858252	9.63062087	1.25623765	0.62643469	10.29978694	-2.75685594	2.46356504	9.25111115	3.27640630	1.70012798	5.67346245	-1.79830453	8.08864252	8.50972190	2.70913321	11.60012141
2685	26.84000000	9.10536374	0.02856913	5.13880628	8.42192454	3.16333793	4.25603620	10.12799285	2.14306873	0.33616997	9.53491177	1.24848070	0.68445795	10.50509744	-2.48365197	2.36110958	9.21934768	3.52339034	1.71789025	5.34080555	-2.02076820	8.19832450	8.38153033	2.70205291	11.15257906
2686	26.85000000	8.94324248	0.07045325	5.20628617	8.37376065	3.21432764	4.26054870	10.46169423	1.17765864	0.17740573	9.61099088	1.19925779	0.68064909	10.69549454	-2.27532703	2.35547109	8.84357451	3.62035726	1.58163213	5.19358100	-2.23714607	8.21050744	8.50300614	2.35349356	10.72844353
2687	26.86000000	9.02882849	-0.00259188	5.07691029	8.26665973	3.17702294	4.12792779	10.56164851	0.69279976	-0.05183984	9.69271811	0.93654005	0.60096573	10.63234567	-2.22039378	2.50111994	8.98097337	3.18062296	1.38568554	5.34588613	-2.23710917	8.19419048	8.82785470	2.02640937	10.20234066
2688	26.87000000	9.09595330	0.01692418	5.03173416	8.15127016	3.14885119	3.87284863	10.58658190	1.01292363	-0.20968605	9.71456842	0.63366548	0.47147532	10.32411254	-2.18950777	2.70506570	8.53636200	3.12754781	1.51983060	5.32759373	-2.14226105	8.22269777	9.65992431	1.94950010	9.71026174
2689	26.88000000	9.15930334	0.05394171	5.02526786	8.14271543	3.11094791	3.76025088	10.43499681	1.50113224	0.05111961	9.63637504	0.44246466	0.33596254	10.02134371	-2.18055413	2.80063190	8.84133778	3.12689273	1.39898115	5.40530720	-2.10460902	8.11843756	10.73516030	1.68312616	9.08553897
2690	26.89000000	9.15444949	0.02228206	4.92951221	7.99579439	3.08250376	3.60848299	10.14375677	1.67916660	0.16963524	9.60862048	0.32212388	0.25271246	9.75814963	-2.16981638	2.87896819	8.12596501	3.37658452	1.28429700	5.51121348	-2.02127002	8.16643078	11.35762555	1.12786793	8.28041804
2691	26.90000000	9.18459895	0.02463775	4.83030611	7.92976707	3.00853332	3.47936907	9.98993625	1.47309872	0.17653672	9.50783480	0.24484936	0.15137418	9.69487641	-2.29108998	2.71557282	8.44073629	3.39351454	1.35145676	5.80309177	-1.87685587	7.94658815	12.01125586	0.40894398	7.50299686
2692	26.91000000	9.35740146	0.06595043	4.86861971	7.96538938	2.86430363	3.35547202	10.00177604	0.87527124	0.13053048	9.37878311	0.13131738	0.19297153	9.73737506	-2.46612243	2.43877431	8.16059824	3.47096126	1.12301282	5.67156598	-2.00069252	7.94762076	12.53940575	-0.24026232	6.51892640
2693	26.92000000	9.47992887	0.07409795	4.86743132	7.87597129	2.70503865	3.29102541	10.13473101	0.26475790	0.27271080	9.34174106	-0.12929358	0.33078221	9.45473077	-2.61009220	2.44555520	7.92684794	3.32332436	0.68339705	5.55534174	-2.17615883	7.99913911	12.62817602	-0.70974638	5.39674808
2694	26.93000000	9.51715511	0.05502615	4.83887099	7.84285341	2.58589920	3.21462241	10.20520777	-0.26868080	0.42465273	9.44751057	-0.31244275	0.43472120	8.97629359	-2.95365076	2.52695536	8.12386016	3.10417944	0.48658248	5.41965833	-2.26518290	8.12912389	12.43819496	-1.28325495	4.55884341
2695	26.94000000	9.47818834	0.09018092	4.84982246	7.84875703	2.48272154	3.02896379	10.22742370	-0.63683032	0.50173724	9.51581035	-0.58560043	0.46620600	8.72618493	-3.37521438	2.25295937	8.20185249	3.05086000	0.72534029	5.79179680	-2.07510603	7.91657584	12.12048719	-1.85798108	4.08587495
2696	26.95000000	9.37371563	0.07753975	4.89394340	7.80755809	2.38804758	2.76200796	10.10288166	-0.72646082	0.68988250	9.55909099	-0.93555246	0.48773109	8.58596307	-3.71663273	1.72301214	8.16604138	2.90364183	1.08886071	5.85881016	-1.92045178	7.94464752	11.77179155	-1.99587406	3.99240351
2697	26.96000000	9.45397333	0.00617338	4.93330414	7.89881019	2.25737940	2.46191927	9.86854620	-0.53009965	0.89695803	9.45804520	-1.23796063	0.50618394	8.61493839	-3.94480304	1.33202280	8.04995345	2.81756620	1.35334582	5.59442333	-1.98448147	8.03054336	11.10149806	-1.74495745	4.08809743
2698	26.97000000	9.37158213	-0.01409762	4.91095636	7.96735879	2.20158906	2.28955301	9.77071568	-0.28130373	0.86114487	9.37508527	-1.27475606	0.57541286	8.55455387	-4.11469590	1.12341611	7.87544346	2.71922736	1.61204125	5.49523611	-1.85841928	8.19775267	10.59245186	-1.44723202	4.30143458
2699	26.98000000	9.45818515	-0.05444083	4.94276212	8.06391919	2.19063639	2.12030099	10.00004699	-0.06940292	0.71901037	9.40061697	-1.23337725	0.64352861	8.22265422	-4.24561970	0.87324473	7.64602409	2.66740209	1.71505840	5.71238511	-1.80366110	8.14292890	10.68156924	-1.33150317	4.73380677
2700	26.99000000	9.55258137	-0.07044197	4.90681750	8.12894867	2.22644923	1.93080168	10.12802137	0.05737680	0.85834724	9.61747015	-1.25599317	0.75743226	7.82272076	-4.24629475	0.85370282	7.31636610	2.62815402	1.47105303	5.89676321	-1.69620425	8.12068777	10.56185793	-1.51023822	5.03233412
2701	27	9.70416947	-0.12728106	4.92734038	8.12677796	2.29634595	1.79156911	9.97030769	0.35958008	0.83468726	9.75854184	-1.22421850	0.80732546	7.60191060	-4.11080455	0.82341764	7.11096318	2.53304444	0.95187847	5.81278817	-1.75656416	8.25311775	10.31975639	-1.71815332	5.50573328
2702	27.01000000	9.46410237	-0.23429671	4.89339721	8.06816024	2.36379919	1.65730838	9.65924728	0.71454813	1.04179185	9.84168037	-1.28854305	0.83954809	7.37755849	-4.14135177	0.71329972	6.85034387	2.43852861	0.50084335	5.60536899	-1.41633763	8.75951866	10.83220271	-2.59672470	5.44952004
2703	27.02000000	9.17623052	-0.34072654	4.74181358	7.94440206	2.34284241	1.61248716	9.42263240	0.78360369	1.57009571	9.92192321	-1.36082511	0.99228261	7.03873379	-4.13397468	0.56156420	6.98355878	2.42221197	0.39073515	5.82843371	-2.52662082	8.04665203	8.10754439	-0.13588990	7.62221485
2704	27.03000000	9.03421582	-0.44274236	4.59201150	7.91283365	2.33731068	1.71230952	9.56127061	0.27022373	2.09079086	9.95922075	-1.49500701	0.98341700	6.66666632	-4.75573666	0.88696065	6.39748467	2.23528701	0.34239663	6.09825348	-1.05204966	8.44893670	17.03494852	1.19762901	0.46177401
2705	27.04000000	8.91305757	-0.55325912	4.60303049	7.94309065	2.21020837	2.36209647	10.17898010	-0.90236260	3.25939197	9.74809339	-1.83836146	1.12213457	8.38209733	-3.99218679	1.11566385	6.61525052	2.24123671	0.46568604	5.55862299	-1.23325144	8.86857156	6.00676724	-8.77312454	-4.06074974
2706	27.05000000	9.09784118	-0.68911752	4.76342491	8.54066985	1.88585582	3.72776369	10.77526098	-2.68203899	3.47605455	9.55317307	-2.24750948	1.21883363	11.29273583	-2.74562348	2.71047778	7.72961206	2.27719929	1.18405568	5.00252984	-1.77628571	9.39779017	14.06737472	-8.03333850	13.27003228
2707	27.06000000	10.14927965	-0.60358473	5.62959693	9.86099829	0.91231743	6.03939633	11.65948293	-4.67191877	2.61115708	9.44197874	-2.70481526	1.16991101	16.40329548	-6.12773842	3.61024862	11.67277997	2.59951715	2.23766220	4.45130611	-2.20629269	10.25319975	19.75114333	-0.16220981	27.08474964
2708	27.07000000	11.93368290	-0.26977146	6.73619914	11.03623785	-0.87791543	7.22323153	13.53462582	-6.40653737	2.23440890	9.77369737	-2.93769894	1.47075871	23.37556947	-9.02384574	5.52629067	18.97782030	2.98953834	1.76118317	3.70594920	-3.38394143	11.20418476	17.00679571	4.34208019	19.31361447
2709	27.08000000	12.57095046	0.49770159	7.58542617	12.53414654	-2.70898249	7.29086719	15.35028609	-6.88244998	3.91972048	10.67936445	-2.64779416	1.74318622	23.55540330	-6.54398044	7.28005912	26.56090625	3.77531102	-0.28629663	3.53466943	-4.34754010	11.74698200	15.61020111	3.32525963	13.84979444
2710	27.09000000	11.77641175	1.60468781	8.04304900	14.52795847	-4.10517036	6.89584061	16.09375969	-5.84746537	4.70088522	11.97877663	-1.73902089	2.04847171	15.79184567	-4.14434155	7.61662516	26.35933298	4.51356543	-2.02743931	3.13316533	-5.25093049	12.21633830	10.03352868	-0.27398719	15.51121551
2711	27.10000000	11.49186377	2.65667153	7.95855288	15.94968259	-4.09724223	6.13353770	15.54949568	-2.97629679	4.82474417	13.50065950	-0.37584979	2.33054788	8.74711384	-3.87291875	5.43852287	17.95753693	2.43776446	-1.57500370	3.15885496	-4.92718950	12.53554534	9.91907063	-1.45952385	12.04670751
2712	27.11000000	11.82858751	3.43305510	7.99050194	14.95730843	-2.65554917	5.91092653	14.03390647	0.60458493	5.57421154	14.42731915	0.80672695	2.66711300	8.49897495	-1.75617740	3.41295239	11.07738542	-1.51612566	-0.44712053	3.92657783	-3.72087056	12.32347807	8.83377191	1.09968489	11.25569027
2713	27.12000000	11.77315993	3.54018645	7.86015773	13.15715224	-0.54040475	6.07251145	13.20769562	3.30295265	3.82919059	14.38529049	1.19826994	2.79166579	10.09167119	-1.10929775	-0.19054026	8.88101436	-2.72092827	-0.05886831	5.71524216	-1.16460108	11.96439326	6.11076845	2.77278830	11.75872993
